<?xml version="1.0" standalone="no"?>
<!DOCTYPE svg PUBLIC "-//W3C//DTD SVG 20010904//EN"
 "http://www.w3.org/TR/2001/REC-SVG-20010904/DTD/svg10.dtd">
<svg version="1.0" xmlns="http://www.w3.org/2000/svg"
 width="402.000000pt" height="402.000000pt" viewBox="0 0 402.000000 402.000000"
 preserveAspectRatio="xMidYMid meet">
<metadata>
Created by potrace 1.16, written by Peter Selinger 2001-2019
</metadata>
<g transform="translate(0.000000,402.000000) scale(0.100000,-0.100000)"
fill="#000000" stroke="none">
<path d="M1832 3730 c-152 -40 -149 -37 -761 -640 -570 -561 -669 -664 -715
-742 -58 -101 -88 -215 -88 -338 1 -148 41 -274 125 -387 20 -27 305 -316 634
-643 539 -537 605 -599 669 -633 225 -117 495 -99 698 47 76 55 1201 1183
1245 1249 131 195 146 448 40 667 -41 84 -45 89 -643 688 -330 332 -626 621
-656 642 -116 79 -221 110 -375 109 -65 0 -125 -7 -173 -19z m1148 -912 c6
-24 13 -49 15 -56 5 -15 -49 -41 -190 -91 -49 -18 -148 -55 -220 -82 -200 -75
-370 -137 -479 -176 -238 -83 -301 -136 -310 -258 -5 -67 -18 -85 -62 -85 -44
0 -64 30 -64 95 1 72 15 123 47 169 37 52 30 88 -30 150 -34 36 -51 45 -89 51
-67 10 -113 -1 -153 -36 -51 -45 -75 -103 -75 -181 l0 -66 -42 -7 c-24 -4 -47
-9 -51 -12 -4 -3 8 -23 28 -45 22 -24 34 -46 31 -55 -14 -34 -18 -212 -7 -283
13 -86 67 -207 128 -288 119 -157 308 -257 508 -269 149 -9 307 38 430 128 68
49 160 151 190 209 l24 48 -67 -25 c-37 -14 -129 -50 -205 -79 -75 -30 -142
-54 -149 -54 -6 0 -20 7 -30 17 -21 19 -25 85 -5 101 13 11 91 42 237 96 164
60 384 143 422 160 20 9 39 12 42 7 3 -4 -10 -28 -29 -52 -18 -24 -39 -65 -44
-91 -26 -115 -118 -269 -220 -368 -77 -74 -192 -145 -301 -186 -72 -27 -82
-28 -260 -29 -176 0 -188 1 -258 27 -289 105 -488 339 -542 639 -6 33 -10 104
-9 157 l2 96 -39 33 c-22 19 -64 41 -96 50 -32 9 -58 21 -58 27 0 22 124 127
181 153 46 22 59 33 59 50 0 45 42 133 88 184 98 109 237 140 359 79 70 -35
136 -102 164 -165 l19 -43 97 34 c53 18 151 55 217 80 67 26 184 70 261 99 77
29 212 80 300 113 88 33 167 63 175 65 39 13 49 7 60 -35z m28 -319 l-3 -70
-65 -23 c-65 -23 -198 -72 -410 -152 -63 -24 -166 -61 -229 -84 -107 -38 -116
-39 -138 -24 -20 13 -24 22 -21 57 3 48 10 52 158 107 47 18 144 53 215 80
221 82 327 122 400 150 39 16 76 29 83 29 10 1 12 -17 10 -70z m-33 -320 c-9
-35 -21 -68 -26 -73 -5 -6 -57 -27 -116 -49 -679 -244 -648 -234 -672 -213
-24 21 -28 77 -8 94 13 10 205 87 317 127 78 27 223 82 385 145 66 26 124 44
128 40 5 -4 1 -36 -8 -71z"/>
</g>
</svg>
